<svg width="64" height="108" viewBox="0 0 64 108" fill="none" xmlns="http://www.w3.org/2000/svg">
<rect x="0.5" y="0.5" width="63" height="107" rx="4.5" stroke="#9747FF" stroke-dasharray="10 5"/>
<circle cx="32" cy="33" r="11.5" fill="#D9D9D9" stroke="#49454F"/>
<path d="M28.75 30.25C29.5783 30.2501 30.25 30.9217 30.25 31.75C30.25 32.5783 29.5783 33.2499 28.75 33.25C27.9216 33.25 27.25 32.5784 27.25 31.75C27.25 30.9216 27.9216 30.25 28.75 30.25Z" fill="black"/>
<path d="M36.6665 30.5C35.8382 30.5001 35.1665 31.1717 35.1665 32C35.1665 32.8283 35.8382 33.4999 36.6665 33.5C37.4949 33.5 38.1665 32.8284 38.1665 32C38.1665 31.1716 37.4949 30.5 36.6665 30.5Z" fill="black"/>
<path d="M37 37.5C37 37.5 34.5103 39.5 32.5 39.5C30.4897 39.5 28 37.5 28 37.5" stroke="black"/>
<g filter="url(#filter0_dd_990_27588)">
<circle cx="32" cy="77" r="12" fill="#FFF09B"/>
<circle cx="32" cy="77" r="11.5" stroke="#49454F"/>
</g>
<path d="M28.75 74.25C29.5783 74.2501 30.25 74.9217 30.25 75.75C30.25 76.5783 29.5783 77.2499 28.75 77.25C27.9216 77.25 27.25 76.5784 27.25 75.75C27.25 74.9216 27.9216 74.25 28.75 74.25Z" fill="black"/>
<path d="M36.6665 74.5C35.8382 74.5001 35.1665 75.1717 35.1665 76C35.1665 76.8283 35.8382 77.4999 36.6665 77.5C37.4949 77.5 38.1665 76.8284 38.1665 76C38.1665 75.1716 37.4949 74.5 36.6665 74.5Z" fill="black"/>
<path d="M37 81.5C37 81.5 34.5103 83.5 32.5 83.5C30.4897 83.5 28 81.5 28 81.5" stroke="black"/>
<defs>
<filter id="filter0_dd_990_27588" x="12" y="59" width="40" height="40" filterUnits="userSpaceOnUse" color-interpolation-filters="sRGB">
<feFlood flood-opacity="0" result="BackgroundImageFix"/>
<feColorMatrix in="SourceAlpha" type="matrix" values="0 0 0 0 0 0 0 0 0 0 0 0 0 0 0 0 0 0 127 0" result="hardAlpha"/>
<feMorphology radius="2" operator="dilate" in="SourceAlpha" result="effect1_dropShadow_990_27588"/>
<feOffset dy="2"/>
<feGaussianBlur stdDeviation="3"/>
<feColorMatrix type="matrix" values="0 0 0 0 0 0 0 0 0 0 0 0 0 0 0 0 0 0 0.15 0"/>
<feBlend mode="normal" in2="BackgroundImageFix" result="effect1_dropShadow_990_27588"/>
<feColorMatrix in="SourceAlpha" type="matrix" values="0 0 0 0 0 0 0 0 0 0 0 0 0 0 0 0 0 0 127 0" result="hardAlpha"/>
<feOffset dy="1"/>
<feGaussianBlur stdDeviation="1"/>
<feColorMatrix type="matrix" values="0 0 0 0 0 0 0 0 0 0 0 0 0 0 0 0 0 0 0.3 0"/>
<feBlend mode="normal" in2="effect1_dropShadow_990_27588" result="effect2_dropShadow_990_27588"/>
<feBlend mode="normal" in="SourceGraphic" in2="effect2_dropShadow_990_27588" result="shape"/>
</filter>
</defs>
</svg>
